<?xml version="1.0" encoding="UTF-8" standalone="no"?>
<svg
   width="53.399628mm"
   height="13.229167mm"
   viewBox="0 0 53.399628 13.229167"
   version="1.1"
   id="svg2854"
   inkscape:version="1.1 (c4e8f9e, 2021-05-24)"
   sodipodi:docname="logo-white.svg"
   xmlns:inkscape="http://www.inkscape.org/namespaces/inkscape"
   xmlns:sodipodi="http://sodipodi.sourceforge.net/DTD/sodipodi-0.dtd"
   xmlns="http://www.w3.org/2000/svg"
   xmlns:svg="http://www.w3.org/2000/svg"
   xmlns:rdf="http://www.w3.org/1999/02/22-rdf-syntax-ns#"
   xmlns:cc="http://creativecommons.org/ns#"
   xmlns:dc="http://purl.org/dc/elements/1.1/">
  <defs
     id="defs2848" />
  <sodipodi:namedview
     id="base"
     pagecolor="#ffffff"
     bordercolor="#666666"
     borderopacity="1.0"
     inkscape:pageopacity="0.0"
     inkscape:pageshadow="2"
     inkscape:zoom="0.35704334"
     inkscape:cx="242.26751"
     inkscape:cy="60.216779"
     inkscape:document-units="mm"
     inkscape:current-layer="layer1"
     inkscape:document-rotation="0"
     showgrid="false"
     fit-margin-top="0"
     fit-margin-left="0"
     fit-margin-right="0"
     fit-margin-bottom="0"
     inkscape:window-width="1440"
     inkscape:window-height="847"
     inkscape:window-x="0"
     inkscape:window-y="25"
     inkscape:window-maximized="0"
     inkscape:pagecheckerboard="0" />
  <metadata
     id="metadata2851">
    <rdf:RDF>
      <cc:Work
         rdf:about="">
        <dc:format>image/svg+xml</dc:format>
        <dc:type
           rdf:resource="http://purl.org/dc/dcmitype/StillImage" />
      </cc:Work>
    </rdf:RDF>
  </metadata>
  <g
     inkscape:label="Layer 1"
     inkscape:groupmode="layer"
     id="layer1"
     transform="translate(0.18981477,0.04859245)">
    <g
       id="g3616"
       transform="matrix(0.11075237,0,0,0.11075237,-15.342861,-107.31405)">
      <g
         id="g3599">
        <path
           sodipodi:nodetypes="ccccccc"
           id="path9976"
           d="m 232.82183,976.08392 c -22.37327,-2.98416 -31.59514,10.42049 -36.24518,35.16688 5.5271,2.6202 20.75881,11.3594 20.75881,11.3594 2.08601,-9.8622 6.83038,-16.0212 12.77219,-15.7518 8.96467,1.0608 15.93952,14.2896 15.67536,31.4226 3.55863,1.884 22.95864,11.1747 28.97798,14.5168 2.06232,-35.0602 -15.45713,-70.5185 -41.93916,-76.71388 z"
           style="font-size:12px;fill:none;fill-opacity:1;stroke:#ffffff;stroke-width:1.09447;stroke-linejoin:miter;stroke-miterlimit:4;stroke-opacity:1"
           inkscape:connector-curvature="0" />
        <path
           sodipodi:nodetypes="ccccc"
           id="path9978"
           d="m 376.12155,1064.4108 -35.84635,23.5535 -42.51127,-22.9425 35.8993,-20.0384 z"
           style="font-size:12px;fill:#ffffff;fill-opacity:1;stroke-width:0.824693"
           inkscape:connector-curvature="0" />
        <path
           style="font-size:12px;fill:#ffffff;fill-opacity:1;stroke-width:0.437786"
           d="m 230.30955,1006.8056 c -5.93642,-0.2833 -10.68894,6.1815 -12.77787,16.5456 l 0.0136,0.029 22.13559,-9.6625 c -2.60351,-3.9373 -5.81187,-6.4687 -9.37137,-6.912 z"
           id="path9980"
           inkscape:connector-curvature="0" />
        <path
           style="font-size:12px;fill:#ffffff;fill-opacity:1;stroke-width:0.437786"
           d="m 190.11672,978.56447 -33.40859,10.91724 26.26716,14.13229 17.44306,-5.86908 c 1.50078,-4.47934 3.31527,-8.34074 5.52705,-11.5466 z"
           id="path9982"
           inkscape:connector-curvature="0" />
        <path
           sodipodi:nodetypes="ccccc"
           id="path9984"
           d="m 258.28877,968.74075 c -5.13842,-0.65162 -21.24228,-0.37277 -40.47676,7.67577 36.77677,-8.45432 57.66039,45.54948 57.3249,77.19778 0,0 31.43755,-17.8432 34.20769,-19.3887 0,-3.4172 0.39824,-56.55349 -51.05583,-65.48485 z"
           style="font-size:12px;fill:#ffffff;fill-opacity:1;stroke-width:0.824693"
           inkscape:connector-curvature="0" />
        <path
           sodipodi:nodetypes="ccccc"
           id="path9986"
           d="m 357.41059,984.10247 -32.94186,16.69253 -26.03729,-12.63376 31.40703,-12.70842 z"
           style="font-size:12px;fill:#ffffff;fill-opacity:1;stroke-width:0.824693"
           inkscape:connector-curvature="0" />
        <path
           sodipodi:nodetypes="ccccc"
           id="path9988"
           d="m 218.28868,1053.852 -40.93099,21.3497 -40.53853,-20.2852 45.24307,-18.4072 z"
           style="font-size:12px;fill:#ffffff;fill-opacity:1;stroke-width:0.824693"
           inkscape:connector-curvature="0" />
        <path
           id="path9990"
           d="m 487.47621,1062.87 h 8.73334 v -76.97464 h -8.73334 z"
           style="font-weight:normal;font-size:72px;font-family:Frutiger57-Condensed;fill:#ffffff;fill-opacity:1;stroke-width:0.824693"
           inkscape:connector-curvature="0" />
        <path
           id="path9992"
           d="m 562.99978,1062.87 h 8.73333 v -76.97464 h -8.73333 z"
           style="font-weight:normal;font-size:72px;font-family:Frutiger57-Condensed;fill:#ffffff;fill-opacity:1;stroke-width:0.824693"
           inkscape:connector-curvature="0" />
        <path
           id="path9994"
           d="m 615.59828,987.65987 c -1.58786,-0.73521 -3.53966,-1.32339 -5.85532,-1.76451 -2.24951,-0.51461 -4.46587,-0.77192 -6.64925,-0.77192 -5.5576,0 -10.15584,1.69095 -13.79472,5.07285 -3.63887,3.38182 -5.45831,8.12381 -5.45831,14.22591 0,2.5732 0.1985,4.8155 0.59543,6.727 0.46314,1.9115 1.25708,3.7128 2.38187,5.4037 1.12472,1.6909 2.64644,3.4186 4.56509,5.183 1.91873,1.691 4.49903,3.6025 7.74098,5.7345 2.31566,1.5439 4.16817,2.9776 5.55753,4.301 1.45558,1.2498 2.54723,2.4628 3.27502,3.6392 0.72779,1.1028 1.22401,2.279 1.48865,3.5288 0.26464,1.1764 0.39693,2.5732 0.39693,4.1906 0,3.3085 -1.12472,6.1757 -3.37424,8.6018 -2.18329,2.3526 -5.16059,3.5289 -8.93183,3.5289 -1.91865,0 -4.06887,-0.4778 -6.45075,-1.4336 -2.3818,-0.9557 -4.63131,-2.132 -6.74846,-3.5289 v 10.0353 c 1.91864,1.0293 4.13509,1.838 6.64925,2.4262 2.51416,0.5882 5.12753,0.8822 7.84011,0.8822 6.41767,0 11.37985,-2.0218 14.88636,-6.0653 3.5066,-4.1171 5.2599,-9.3737 5.2599,-15.7699 0,-4.5582 -1.09165,-8.6018 -3.27503,-12.1306 -2.11715,-3.529 -5.78909,-6.9476 -11.01591,-10.256 -2.44794,-1.6174 -4.46588,-3.051 -6.05374,-4.3008 -1.52173,-1.2499 -2.71267,-2.3894 -3.57274,-3.4187 -0.79393,-1.1028 -1.35637,-2.1688 -1.68716,-3.1981 -0.26464,-1.0292 -0.39692,-2.2056 -0.39692,-3.5289 0,-3.3084 0.99235,-6.02855 2.97722,-8.16063 1.98487,-2.20556 4.59824,-3.30834 7.84019,-3.30834 2.11716,0 4.20124,0.33087 6.25225,0.99252 2.05101,0.58817 3.90352,1.43365 5.5576,2.53643 z"
           style="font-weight:normal;font-size:72px;font-family:Frutiger57-Condensed;fill:#ffffff;fill-opacity:1;stroke-width:0.824693"
           inkscape:connector-curvature="0" />
        <path
           id="path9996"
           d="m 436.32084,992.37035 15.87534,0.10309 v 0.10308 c -1.1855,0.56698 -2.16482,1.44322 -2.98951,2.62871 -0.8247,1.13396 -1.23704,2.68025 -1.23704,4.48427 -0.0515,2.9895 1.13395,5.3605 3.55649,7.0614 2.37099,1.701 5.7213,2.5772 10.05094,2.6287 1.85556,0 3.60803,-0.2061 5.25742,-0.5154 1.64939,-0.4123 3.14414,-0.9793 4.38118,-1.7525 1.23704,-0.7731 2.21636,-1.804 2.98951,-3.041 0.67007,-1.2371 1.03087,-2.7318 1.03087,-4.3812 0,-1.95865 -0.3608,-3.50494 -1.1855,-4.69044 -0.87623,-1.13395 -1.95864,-2.01019 -3.29877,-2.68025 v -0.15463 c 1.75247,0 3.0926,-0.0516 4.12347,-0.20618 l 0.0515,-6.23674 c -0.87624,0.15463 -2.37099,0.20618 -4.53581,0.20618 l -34.01859,-0.25772 z m 25.05005,10.30865 c -2.83488,0 -4.9997,-0.4123 -6.49446,-1.237 -1.49475,-0.7732 -2.2679,-2.06176 -2.21636,-3.81423 0,-1.75247 0.82469,-3.04106 2.42254,-3.86575 1.59784,-0.82469 3.76266,-1.23704 6.49445,-1.23704 2.7318,0 4.89662,0.46389 6.546,1.28858 1.64939,0.8247 2.47408,2.16482 2.47408,4.02038 -0.0515,1.9071 -0.77315,3.14416 -2.21636,3.86576 -1.44321,0.6701 -3.81421,1.0309 -7.00989,0.9793 z"
           style="font-weight:bold;font-size:72px;font-family:Frutiger67-Condensed;fill:#ffffff;fill-opacity:1;stroke-width:0.824693"
           inkscape:connector-curvature="0" />
        <path
           id="path9998"
           d="m 468.38078,1015.5133 c 0.61852,0.8762 1.13395,1.8556 1.49475,2.938 0.36081,1.0824 0.56698,2.5256 0.51544,4.3296 0,2.5256 -0.61852,4.3296 -1.85556,5.4636 -1.23704,1.0309 -3.04106,1.5463 -5.41205,1.5463 l 0.10309,-16.03 h -1.23704 c -2.57717,0 -4.79353,0.2577 -6.64909,0.8247 -1.85556,0.567 -3.29877,1.3401 -4.43272,2.3195 -1.08241,1.0308 -1.90711,2.1648 -2.371,3.5049 -0.46388,1.2886 -0.7216,2.7833 -0.77314,4.3296 0,1.7525 0.3608,3.2988 1.0824,4.742 0.67007,1.3917 1.64939,2.6287 2.93797,3.6081 1.28859,1.0308 2.7318,1.804 4.48427,2.371 1.64939,0.5154 3.50495,0.7731 5.46359,0.7731 1.85556,0 3.55649,-0.2062 5.15433,-0.7216 1.59785,-0.4639 2.98951,-1.237 4.22655,-2.2679 1.23704,-1.0824 2.21637,-2.4225 2.88643,-4.0204 0.72161,-1.6494 1.08241,-3.5565 1.08241,-5.6697 0,-1.7525 -0.15463,-3.2473 -0.46389,-4.5874 -0.3608,-1.3917 -0.72161,-2.6287 -1.1855,-3.7111 z m -9.2778,14.2775 c -1.95864,-0.052 -3.60803,-0.4639 -4.94815,-1.2886 -1.39167,-0.8247 -2.06174,-2.0617 -2.06174,-3.7111 0.0515,-3.0926 2.371,-4.6389 7.06144,-4.5874 z"
           style="font-weight:bold;font-size:72px;font-family:Frutiger67-Condensed;fill:#ffffff;fill-opacity:1;stroke-width:0.824693"
           inkscape:connector-curvature="0" />
        <path
           id="path10000"
           d="m 474.41135,1064.8402 0.0515,-6.9068 -15.41145,-0.103 v -1.5463 c 0,-1.3402 0.30926,-2.4226 0.87624,-3.2988 0.56697,-0.8247 1.5463,-1.4948 2.88642,-1.9071 l 11.70033,-3.6081 0.0516,-7.3191 -13.71052,4.7935 c -1.49476,0.5155 -2.52563,1.134 -3.0926,1.804 -0.56698,0.6701 -0.92778,1.4433 -1.08241,2.3195 h -0.15463 c -0.30926,-2.1648 -1.1855,-3.9173 -2.68025,-5.2574 -1.49476,-1.3402 -3.40186,-2.0618 -5.72131,-2.0618 -3.19569,0 -5.56668,0.9794 -7.11298,2.938 -1.59784,2.0102 -2.37099,4.6905 -2.42253,8.1954 l -0.0516,11.7003 z m -20.20498,-7.0098 -10.61792,-0.1031 0.0515,-2.7834 c 0,-2.0617 0.41235,-3.608 1.13395,-4.6389 0.72161,-0.9793 2.06174,-1.4432 4.02038,-1.4432 1.80402,0 3.14414,0.567 4.07192,1.7009 0.92778,1.0825 1.34013,2.5772 1.34013,4.4328 z"
           style="font-weight:bold;font-size:72px;font-family:Frutiger67-Condensed;fill:#ffffff;fill-opacity:1;stroke-width:0.824693"
           inkscape:connector-curvature="0" />
        <path
           id="path10002"
           d="m 511.47099,1062.8816 h 8.76236 v -34.8433 h 3.96883 c 3.24723,0 5.61822,0.6701 7.16452,1.9587 1.5463,1.237 2.83489,3.5565 3.86575,6.8552 l 7.93767,26.0294 h 9.43243 l -9.74169,-30.8744 c -0.72161,-2.3195 -1.64938,-3.9689 -2.78334,-5.1028 -1.13395,-1.1855 -2.73179,-1.9587 -4.74198,-2.4226 v -0.2061 c 4.74198,-1.1855 8.19538,-3.4019 10.41175,-6.7522 2.16482,-3.2988 3.24722,-7.1645 3.24722,-11.6488 0,-2.938 -0.41234,-5.6698 -1.28858,-8.19539 -0.82469,-2.47408 -2.16482,-4.6389 -3.86575,-6.49446 -1.64938,-1.75247 -3.60803,-3.09259 -5.92748,-3.96883 -2.2679,-0.87624 -5.15433,-1.34013 -8.65927,-1.34013 h -17.78244 z m 8.76236,-69.06804 h 6.95834 c 3.96884,0 7.06144,1.08241 9.32934,3.19569 2.21637,2.16482 3.35032,5.30895 3.35032,9.48395 0,3.7627 -1.08241,6.9584 -3.24723,9.6386 -2.16482,2.6287 -5.3605,3.9689 -9.6386,3.9689 h -6.75217 z"
           style="font-weight:normal;font-size:72px;font-family:Frutiger57-Condensed;fill:#ffffff;fill-opacity:1;stroke-width:0.824693"
           inkscape:connector-curvature="0" />
      </g>
    </g>
  </g>
</svg>
